<?xml version="1.0" encoding="UTF-8"?>
<svg width="700pt" height="700pt" version="1.1" viewBox="0 0 700 700" xmlns="http://www.w3.org/2000/svg" xmlns:xlink="http://www.w3.org/1999/xlink">
 <defs>
  <symbol id="t" overflow="visible">
   <path d="m23.25-1.3906c-1.1992 0.625-2.4492 1.0938-3.75 1.4062-1.293 0.3125-2.6484 0.46875-4.0625 0.46875-4.2188 0-7.5586-1.1758-10.016-3.5312-2.4609-2.3516-3.6875-5.5469-3.6875-9.5781 0-4.0391 1.2266-7.2383 3.6875-9.5938 2.457-2.3516 5.7969-3.5312 10.016-3.5312 1.4141 0 2.7695 0.15625 4.0625 0.46875 1.3008 0.3125 2.5508 0.78125 3.75 1.4062v5.2344c-1.2109-0.82031-2.4023-1.4258-3.5781-1.8125-1.1797-0.38281-2.4141-0.57812-3.7031-0.57812-2.3359 0-4.168 0.74609-5.5 2.2344-1.3359 1.4922-2 3.5469-2 6.1719 0 2.6172 0.66406 4.668 2 6.1562 1.332 1.4922 3.1641 2.2344 5.5 2.2344 1.2891 0 2.5234-0.19141 3.7031-0.57812 1.1758-0.38281 2.3672-0.98828 3.5781-1.8125z"/>
  </symbol>
  <symbol id="c" overflow="visible">
   <path d="m17.016-13.812c-0.53125-0.25-1.0625-0.42969-1.5938-0.54688-0.52344-0.11328-1.0469-0.17188-1.5781-0.17188-1.5625 0-2.7656 0.5-3.6094 1.5-0.83594 0.99219-1.25 2.418-1.25 4.2812v8.75h-6.0625v-18.984h6.0625v3.125c0.78125-1.2383 1.6758-2.1445 2.6875-2.7188 1.0078-0.57031 2.2188-0.85938 3.625-0.85938 0.20703 0 0.42578 0.011719 0.65625 0.03125 0.23828 0.011719 0.58594 0.046875 1.0469 0.10938z"/>
  </symbol>
  <symbol id="b" overflow="visible">
   <path d="m21.859-9.5469v1.7344h-14.188c0.14453 1.4297 0.66016 2.4961 1.5469 3.2031 0.88281 0.71094 2.1133 1.0625 3.6875 1.0625 1.2812 0 2.5859-0.1875 3.9219-0.5625 1.3438-0.375 2.7188-0.94531 4.125-1.7188v4.6719c-1.4297 0.54297-2.8594 0.94922-4.2969 1.2188-1.4375 0.28125-2.8711 0.42188-4.2969 0.42188-3.4375 0-6.1094-0.86719-8.0156-2.6094-1.9062-1.75-2.8594-4.1953-2.8594-7.3438 0-3.0938 0.92969-5.5234 2.7969-7.2969 1.875-1.7812 4.4531-2.6719 7.7344-2.6719 2.9766 0 5.3633 0.90234 7.1562 2.7031 1.7891 1.793 2.6875 4.1875 2.6875 7.1875zm-6.2344-2.0156c0-1.1445-0.33984-2.0703-1.0156-2.7812-0.66797-0.70703-1.543-1.0625-2.625-1.0625-1.1797 0-2.1367 0.33594-2.875 1-0.73047 0.65625-1.1836 1.6055-1.3594 2.8438z"/>
  </symbol>
  <symbol id="e" overflow="visible">
   <path d="m11.422-8.5469c-1.2734 0-2.2266 0.21875-2.8594 0.65625-0.63672 0.42969-0.95312 1.0586-0.95312 1.8906 0 0.77344 0.25391 1.375 0.76562 1.8125 0.51953 0.42969 1.2344 0.64062 2.1406 0.64062 1.1445 0 2.1094-0.40625 2.8906-1.2188 0.78125-0.82031 1.1719-1.8477 1.1719-3.0781v-0.70312zm9.2656-2.2812v10.828h-6.1094v-2.8125c-0.8125 1.1562-1.7305 1.9961-2.75 2.5156-1.0234 0.51953-2.2617 0.78125-3.7188 0.78125-1.9609 0-3.5547-0.57031-4.7812-1.7188-1.2305-1.1445-1.8438-2.6289-1.8438-4.4531 0-2.2266 0.76562-3.8633 2.2969-4.9062 1.5312-1.0391 3.9375-1.5625 7.2188-1.5625h3.5781v-0.46875c0-0.95703-0.38281-1.6602-1.1406-2.1094-0.76172-0.44531-1.9453-0.67188-3.5469-0.67188-1.293 0-2.5 0.13281-3.625 0.39062-1.1172 0.26172-2.1523 0.65234-3.1094 1.1719v-4.625c1.2891-0.3125 2.5938-0.55078 3.9062-0.71875 1.3125-0.16406 2.625-0.25 3.9375-0.25 3.4141 0 5.8828 0.67969 7.4062 2.0312 1.5195 1.3438 2.2812 3.5391 2.2812 6.5781z"/>
  </symbol>
  <symbol id="a" overflow="visible">
   <path d="m9.5469-24.359v5.375h6.25v4.3438h-6.25v8.0469c0 0.88672 0.17188 1.4844 0.51562 1.7969 0.35156 0.30469 1.0508 0.45312 2.0938 0.45312h3.1094v4.3438h-5.2031c-2.3984 0-4.0938-0.5-5.0938-1.5s-1.5-2.6953-1.5-5.0938v-8.0469h-3.0156v-4.3438h3.0156v-5.375z"/>
  </symbol>
  <symbol id="k" overflow="visible">
   <path d="m15.828-16.203v-10.156h6.0938v26.359h-6.0938v-2.75c-0.83594 1.125-1.7578 1.9492-2.7656 2.4688-1 0.50781-2.1641 0.76562-3.4844 0.76562-2.3438 0-4.2656-0.92578-5.7656-2.7812-1.5-1.8516-2.25-4.2422-2.25-7.1719 0-2.9258 0.75-5.3164 2.25-7.1719 1.5-1.8633 3.4219-2.7969 5.7656-2.7969 1.3125 0 2.4727 0.26562 3.4844 0.79688 1.0078 0.52344 1.9297 1.3359 2.7656 2.4375zm-4 12.281c1.3008 0 2.2891-0.47266 2.9688-1.4219 0.6875-0.94531 1.0312-2.3203 1.0312-4.125 0-1.8125-0.34375-3.1914-1.0312-4.1406-0.67969-0.94531-1.668-1.4219-2.9688-1.4219-1.293 0-2.2812 0.47656-2.9688 1.4219-0.67969 0.94922-1.0156 2.3281-1.0156 4.1406 0 1.8047 0.33594 3.1797 1.0156 4.125 0.6875 0.94922 1.6758 1.4219 2.9688 1.4219z"/>
  </symbol>
  <symbol id="j" overflow="visible">
   <path d="m13.016-3.9219c1.3008 0 2.2891-0.47266 2.9688-1.4219 0.6875-0.94531 1.0312-2.3203 1.0312-4.125 0-1.8125-0.34375-3.1914-1.0312-4.1406-0.67969-0.94531-1.668-1.4219-2.9688-1.4219-1.3047 0-2.3047 0.48047-3 1.4375-0.6875 0.94922-1.0312 2.3242-1.0312 4.125 0 1.793 0.34375 3.168 1.0312 4.125 0.69531 0.94922 1.6953 1.4219 3 1.4219zm-4.0312-12.281c0.83203-1.1016 1.7539-1.9141 2.7656-2.4375 1.0195-0.53125 2.1914-0.79688 3.5156-0.79688 2.3438 0 4.2656 0.93359 5.7656 2.7969 1.5 1.8555 2.25 4.2461 2.25 7.1719 0 2.9297-0.75 5.3203-2.25 7.1719-1.5 1.8555-3.4219 2.7812-5.7656 2.7812-1.3242 0-2.4961-0.26172-3.5156-0.78125-1.0117-0.51953-1.9336-1.3359-2.7656-2.4531v2.75h-6.0625v-26.359h6.0625z"/>
  </symbol>
  <symbol id="i" overflow="visible">
   <path d="m0.42188-18.984h6.0625l5.1094 12.891 4.3281-12.891h6.0781l-7.9844 20.781c-0.80469 2.1133-1.7422 3.5859-2.8125 4.4219-1.0625 0.84375-2.4688 1.2656-4.2188 1.2656h-3.5156v-3.9844h1.9062c1.0195 0 1.7656-0.16406 2.2344-0.48438 0.46875-0.32422 0.83203-0.91406 1.0938-1.7656l0.17188-0.51562z"/>
  </symbol>
  <symbol id="g" overflow="visible">
   <path d="m2.9219-18.984h6.0625v18.641c0 2.5391-0.60938 4.4766-1.8281 5.8125-1.2188 1.3438-2.9922 2.0156-5.3125 2.0156h-3v-3.9844h1.0469c1.1562 0 1.9453-0.26172 2.375-0.78125 0.4375-0.51172 0.65625-1.5312 0.65625-3.0625zm0-7.375h6.0625v4.9375h-6.0625z"/>
  </symbol>
  <symbol id="d" overflow="visible">
   <path d="m11.953-15.094c-1.3438 0-2.3711 0.48438-3.0781 1.4531-0.71094 0.96094-1.0625 2.3516-1.0625 4.1719 0 1.8125 0.35156 3.2031 1.0625 4.1719 0.70703 0.96875 1.7344 1.4531 3.0781 1.4531 1.3125 0 2.3164-0.48438 3.0156-1.4531 0.70703-0.96875 1.0625-2.3594 1.0625-4.1719 0-1.8203-0.35547-3.2109-1.0625-4.1719-0.69922-0.96875-1.7031-1.4531-3.0156-1.4531zm0-4.3438c3.2578 0 5.8047 0.88281 7.6406 2.6406 1.832 1.7617 2.75 4.2031 2.75 7.3281 0 3.1172-0.91797 5.5547-2.75 7.3125-1.8359 1.7617-4.3828 2.6406-7.6406 2.6406-3.2812 0-5.8516-0.87891-7.7031-2.6406-1.8438-1.7578-2.7656-4.1953-2.7656-7.3125 0-3.125 0.92188-5.5664 2.7656-7.3281 1.8516-1.7578 4.4219-2.6406 7.7031-2.6406z"/>
  </symbol>
  <symbol id="f" overflow="visible">
   <path d="m22-11.562v11.562h-6.1094v-8.8438c0-1.6328-0.039063-2.7656-0.10938-3.3906-0.074219-0.625-0.19922-1.082-0.375-1.375-0.24219-0.39453-0.5625-0.70312-0.96875-0.92188s-0.87109-0.32812-1.3906-0.32812c-1.2617 0-2.2578 0.49219-2.9844 1.4688-0.71875 0.98047-1.0781 2.3281-1.0781 4.0469v9.3438h-6.0625v-18.984h6.0625v2.7812c0.91406-1.1016 1.8828-1.9141 2.9062-2.4375 1.0312-0.53125 2.1641-0.79688 3.4062-0.79688 2.1953 0 3.8633 0.67188 5 2.0156 1.1328 1.3438 1.7031 3.2969 1.7031 5.8594z"/>
  </symbol>
  <symbol id="s" overflow="visible">
   <path d="m2.9219-18.984h6.0625v18.984h-6.0625zm0-7.375h6.0625v4.9375h-6.0625z"/>
  </symbol>
  <symbol id="h" overflow="visible">
   <path d="m2.9219-26.359h6.0625v26.359h-6.0625z"/>
  </symbol>
  <symbol id="r" overflow="visible">
   <path d="m15.406-26.359v3.9688h-3.3594c-0.85547 0-1.4531 0.15625-1.7969 0.46875-0.33594 0.3125-0.5 0.85547-0.5 1.625v1.3125h5.1719v4.3438h-5.1719v14.641h-6.0781v-14.641h-3.0156v-4.3438h3.0156v-1.3125c0-2.0703 0.57812-3.5977 1.7344-4.5781 1.1562-0.98828 2.9414-1.4844 5.3594-1.4844z"/>
  </symbol>
  <symbol id="q" overflow="visible">
   <path d="m20.5-15.828c0.76953-1.1758 1.6797-2.0703 2.7344-2.6875 1.0625-0.61328 2.2227-0.92188 3.4844-0.92188 2.1875 0 3.8477 0.67188 4.9844 2.0156 1.1445 1.3438 1.7188 3.2969 1.7188 5.8594v11.562h-6.1094v-9.8906c0.007812-0.14453 0.015625-0.29688 0.015625-0.45312 0.007813-0.16406 0.015625-0.39453 0.015625-0.6875 0-1.3438-0.19922-2.3164-0.59375-2.9219-0.39844-0.60156-1.0312-0.90625-1.9062-0.90625-1.1562 0-2.0469 0.47656-2.6719 1.4219-0.625 0.94922-0.94922 2.3242-0.96875 4.125v9.3125h-6.1094v-9.8906c0-2.1016-0.18359-3.457-0.54688-4.0625-0.35547-0.60156-0.99609-0.90625-1.9219-0.90625-1.168 0-2.0703 0.48047-2.7031 1.4375-0.625 0.94922-0.9375 2.3086-0.9375 4.0781v9.3438h-6.1094v-18.984h6.1094v2.7812c0.73828-1.0703 1.5938-1.8789 2.5625-2.4219 0.96875-0.53906 2.0312-0.8125 3.1875-0.8125 1.3125 0 2.4688 0.32031 3.4688 0.95312 1.0078 0.63672 1.7734 1.5234 2.2969 2.6562z"/>
  </symbol>
  <symbol id="p" overflow="visible">
   <path d="m22-11.562v11.562h-6.1094v-8.8125c0-1.6562-0.039063-2.7969-0.10938-3.4219-0.074219-0.625-0.19922-1.082-0.375-1.375-0.24219-0.39453-0.5625-0.70312-0.96875-0.92188s-0.87109-0.32812-1.3906-0.32812c-1.2617 0-2.2578 0.49219-2.9844 1.4688-0.71875 0.98047-1.0781 2.3281-1.0781 4.0469v9.3438h-6.0625v-26.359h6.0625v10.156c0.91406-1.1016 1.8828-1.9141 2.9062-2.4375 1.0312-0.53125 2.1641-0.79688 3.4062-0.79688 2.1953 0 3.8633 0.67188 5 2.0156 1.1328 1.3438 1.7031 3.2969 1.7031 5.8594z"/>
  </symbol>
  <symbol id="o" overflow="visible">
   <path d="m3.1875-25.297h7.2812l9.2031 17.344v-17.344h6.1875v25.297h-7.2812l-9.2031-17.359v17.359h-6.1875z"/>
  </symbol>
  <symbol id="n" overflow="visible">
   <path d="m2.7188-7.3906v-11.594h6.0938v1.9062c0 1.0312-0.007812 2.3242-0.015625 3.875-0.011719 1.5547-0.015625 2.5898-0.015625 3.1094 0 1.5234 0.035156 2.6211 0.10938 3.2969 0.082031 0.66797 0.21875 1.1523 0.40625 1.4531 0.25 0.39844 0.57031 0.70312 0.96875 0.92188 0.40625 0.21875 0.86719 0.32812 1.3906 0.32812 1.2695 0 2.2656-0.48438 2.9844-1.4531 0.71875-0.97656 1.0781-2.332 1.0781-4.0625v-9.375h6.0781v18.984h-6.0781v-2.75c-0.90625 1.1172-1.875 1.9336-2.9062 2.4531-1.0234 0.51953-2.1484 0.78125-3.375 0.78125-2.1875 0-3.8555-0.67188-5-2.0156-1.1484-1.3438-1.7188-3.2969-1.7188-5.8594z"/>
  </symbol>
  <symbol id="m" overflow="visible">
   <path d="m3.1875-25.297h10.828c3.2188 0 5.6875 0.71484 7.4062 2.1406 1.7266 1.4297 2.5938 3.4648 2.5938 6.1094 0 2.6562-0.86719 4.6992-2.5938 6.125-1.7188 1.4297-4.1875 2.1406-7.4062 2.1406h-4.3125v8.7812h-6.5156zm6.5156 4.7188v7.0781h3.6094c1.2695 0 2.25-0.30469 2.9375-0.92188 0.6875-0.625 1.0312-1.5 1.0312-2.625s-0.34375-1.9922-1.0312-2.6094c-0.6875-0.61328-1.668-0.92188-2.9375-0.92188z"/>
  </symbol>
  <symbol id="l" overflow="visible">
   <path d="m18.25-18.391v4.9531c-0.82422-0.5625-1.6523-0.97656-2.4844-1.25-0.83594-0.26953-1.6953-0.40625-2.5781-0.40625-1.6992 0-3.0234 0.49609-3.9688 1.4844-0.9375 0.99219-1.4062 2.3711-1.4062 4.1406 0 1.7734 0.46875 3.1523 1.4062 4.1406 0.94531 0.99219 2.2695 1.4844 3.9688 1.4844 0.94531 0 1.8477-0.14062 2.7031-0.42188 0.85156-0.28125 1.6406-0.70312 2.3594-1.2656v4.9688c-0.94922 0.35547-1.9141 0.61328-2.8906 0.78125-0.98047 0.17578-1.9609 0.26562-2.9375 0.26562-3.4297 0-6.1094-0.875-8.0469-2.625-1.9297-1.7578-2.8906-4.2031-2.8906-7.3281 0-3.1328 0.96094-5.5781 2.8906-7.3281 1.9375-1.7578 4.6172-2.6406 8.0469-2.6406 0.98828 0 1.9688 0.089844 2.9375 0.26562 0.96875 0.17969 1.9297 0.4375 2.8906 0.78125z"/>
  </symbol>
 </defs>
 <g>
  <path d="m351.63 243.39c38.566 0 79.566-12.398 79.566-35.375v-43.363c0-1.4375-0.16016-2.8242-0.47266-4.1875-0.625-2.6992-1.832-5.2422-3.5664-7.6094-0.86719-1.1875-1.8594-2.3203-2.9727-3.4219-0.79688-0.78516-1.6523-1.543-2.5625-2.2891-0.35547-0.28516-0.74219-0.54688-1.0977-0.82031-0.58203-0.44531-1.168-0.88672-1.7891-1.3125-0.5-0.33984-1.0273-0.66797-1.5469-1-0.52734-0.33203-1.0547-0.66797-1.6094-0.99219-0.625-0.36719-1.293-0.72266-1.9375-1.0703-0.47266-0.25781-0.96484-0.51562-1.4492-0.76172-0.75781-0.38281-1.5352-0.75-2.3203-1.1094-0.42188-0.19531-0.85547-0.38281-1.2773-0.57031-0.89453-0.39062-1.8047-0.76953-2.7266-1.1367-0.35547-0.14063-0.69531-0.26563-1.0273-0.40234-1.0273-0.39062-2.0742-0.77734-3.1445-1.1445-0.24219-0.082031-0.48438-0.16016-0.72266-0.24219-1.1797-0.39453-2.3867-0.77734-3.6094-1.1445-7.5664-2.25-15.918-3.9023-24.551-4.9219-3.5-0.41016-7.0039-0.72266-10.551-0.92969h-0.007813c-3.5391-0.20703-7.0859-0.3125-10.621-0.3125h-0.007813c-33.742 0-69.348 9.4961-77.719 27.266-1.1953 2.5352-1.832 5.2422-1.832 8.1133v43.363c-0.003906 22.977 40.984 35.375 79.555 35.375zm66.074-35.375c0 8.9219-25.734 21.879-66.062 21.879v-29.871c24.941-0.007812 50.84-5.2188 66.062-15.105zm-131.85-45.078c0.17188-0.51953 0.44531-1.0547 0.76953-1.5898 0.11719-0.1875 0.27734-0.375 0.41016-0.5625 0.25-0.35547 0.5-0.70703 0.8125-1.0625 0.20313-0.23047 0.44531-0.46484 0.67969-0.69531 0.29688-0.3125 0.61719-0.625 0.98047-0.9375 0.29297-0.26563 0.61719-0.51953 0.94922-0.77734 0.34766-0.27734 0.70703-0.55469 1.0898-0.83203 0.40234-0.29297 0.82422-0.57422 1.2695-0.86719 0.36719-0.23438 0.74219-0.47266 1.1367-0.71484 0.51562-0.3125 1.0547-0.63281 1.625-0.94531 0.35547-0.19531 0.72266-0.375 1.082-0.57031 0.67969-0.34766 1.3555-0.69531 2.0898-1.0273 0.25781-0.125 0.52734-0.23437 0.79297-0.35547 7.3008-3.2852 17.25-6.1172 29.355-7.7539 0.042968-0.007813 0.082031-0.015626 0.125-0.015626 1.7344-0.23437 3.5117-0.4375 5.3398-0.61719 0.078124-0.007813 0.14453-0.015625 0.20703-0.019531 1.832-0.17969 3.6992-0.33203 5.6172-0.45703h0.019532c3.6641-0.23437 7.4609-0.38281 11.426-0.38281 4.1641 0 8.1758 0.14062 12.008 0.40234 6.4219 0.42969 12.363 1.207 17.785 2.2227 0.38281 0.070312 0.75781 0.14062 1.125 0.21484 4.2969 0.83984 8.2461 1.832 11.836 2.9297 0.35547 0.10938 0.72266 0.23047 1.082 0.33984 1.7344 0.55469 3.4023 1.1328 4.9648 1.7344 0.015625 0.007812 0.042969 0.015625 0.070312 0.027344 1.4922 0.58203 2.875 1.1953 4.1914 1.8203 0.32812 0.15234 0.65234 0.30469 0.96484 0.45703 1.293 0.63281 2.5078 1.2773 3.5977 1.9219 0.027343 0.019532 0.054687 0.042969 0.097656 0.0625 1.0547 0.63281 1.9766 1.2773 2.832 1.9141 0.23047 0.17188 0.45703 0.33984 0.67969 0.51562 0.82422 0.66797 1.5898 1.3242 2.207 1.9922 1.7344 1.8477 2.6445 3.6602 2.6445 5.332 0 8.9258-25.746 21.887-66.07 21.887-2.9844 0-5.8516-0.089844-8.6719-0.23047-0.83984-0.035157-1.6602-0.097657-2.4844-0.14453-2.0117-0.125-3.9922-0.28516-5.9219-0.46484-0.79688-0.082032-1.5898-0.15234-2.375-0.24219-2.2578-0.25781-4.4648-0.55469-6.5742-0.88281-0.28516-0.046875-0.58984-0.082032-0.86719-0.125-2.4922-0.41016-4.8594-0.875-7.1445-1.3828-0.32812-0.070312-0.63672-0.15234-0.96484-0.23047-1.957-0.45312-3.8398-0.92969-5.6172-1.4453-0.35547-0.10547-0.71484-0.20312-1.0547-0.30469-9.5586-2.832-16.582-6.4219-20.566-9.9961-0.15234-0.14062-0.30469-0.27734-0.44531-0.41797-0.35547-0.33984-0.70703-0.67969-1.0117-1.0117-0.40234-0.44531-0.76172-0.89453-1.0625-1.3398-0.14062-0.19531-0.23047-0.39063-0.33984-0.57422-0.20312-0.35938-0.39062-0.72266-0.52734-1.0742-0.070313-0.16797-0.14063-0.33203-0.1875-0.5-0.14453-0.51562-0.26563-1.0195-0.26563-1.5078-0.007812-0.55469 0.09375-1.1328 0.28906-1.7148z"/>
  <path d="m696.81 146.46c-0.054688-0.1875-0.14062-0.36719-0.21484-0.54688-0.14453-0.39453-0.32812-0.77734-0.54297-1.1328-0.125-0.19531-0.24219-0.36719-0.38281-0.54688-0.24219-0.32812-0.54297-0.625-0.85547-0.91016-0.14453-0.14453-0.28516-0.28516-0.44531-0.41016-0.070313-0.046874-0.125-0.11719-0.1875-0.16797-0.42969-0.30469-0.91016-0.54297-1.3945-0.73047-0.015625 0-0.015625-0.015625-0.027344-0.015625l-0.015624-0.007812c-0.015626 0-0.015626 0-0.027344-0.007813l-92.164-35.285v-5.8711c0-1.4375-0.16016-2.832-0.45703-4.1875-0.625-2.707-1.8477-5.2422-3.582-7.6133-0.85547-1.1797-1.8594-2.3203-2.9727-3.4219-0.78516-0.78516-1.6523-1.543-2.5625-2.2891-0.33984-0.28516-0.73047-0.54688-1.0977-0.82031-0.58203-0.44531-1.168-0.88672-1.7891-1.3125-0.5-0.33984-1.0273-0.66797-1.5469-1-0.52734-0.33203-1.043-0.66797-1.6094-0.99219-0.625-0.36719-1.2773-0.72266-1.9375-1.0742-0.47266-0.25781-0.94922-0.51563-1.4492-0.76172-0.74219-0.38281-1.5352-0.75-2.3203-1.1094-0.42187-0.19531-0.85547-0.39062-1.2773-0.57422-0.89453-0.39062-1.7891-0.76953-2.7266-1.1367-0.33984-0.14062-0.69531-0.26562-1.0273-0.40234-1.0273-0.39062-2.0742-0.77734-3.1445-1.1445-0.23047-0.082031-0.47266-0.16016-0.72266-0.24219-1.1797-0.39453-2.3867-0.78516-3.6094-1.1523-7.5664-2.25-15.902-3.9023-24.551-4.9219-3.4844-0.41016-7.0117-0.72266-10.551-0.92969-3.5547-0.20703-7.0859-0.3125-10.629-0.3125h-0.015625c-8.0117 0-16.145 0.55469-23.984 1.6094l-67.422-25.809 0.003906-5.8477c0-1.4375-0.16016-2.832-0.47266-4.1875-0.625-2.707-1.832-5.2422-3.5664-7.6094-0.86719-1.1875-1.8594-2.3203-2.9727-3.4219-0.78516-0.78516-1.6523-1.543-2.5625-2.2891-0.35547-0.28516-0.74219-0.54688-1.0977-0.82031-0.58203-0.44531-1.168-0.88672-1.7891-1.3125-0.5-0.33984-1.0273-0.66797-1.5469-1-0.52734-0.33203-1.0547-0.66797-1.6094-0.99219-0.625-0.36719-1.2773-0.72266-1.9375-1.0703-0.47266-0.25781-0.96484-0.51563-1.4492-0.76172-0.75781-0.38281-1.5352-0.75-2.3203-1.1094-0.42188-0.19531-0.85547-0.39062-1.2773-0.57031-0.89453-0.39062-1.8047-0.76953-2.7266-1.1367-0.33984-0.14062-0.69531-0.26562-1.0273-0.40234-1.0273-0.39062-2.0742-0.77734-3.1445-1.1445-0.24219-0.082032-0.47266-0.16016-0.72266-0.24219-1.1797-0.39453-2.3867-0.77734-3.6094-1.1445-7.5664-2.25-15.918-3.9023-24.551-4.9219-3.5-0.41016-7.0039-0.72266-10.551-0.92969h-0.007813c-3.5352-0.21094-7.0898-0.31641-10.621-0.31641h-0.007812c-33.742 0-69.348 9.4961-77.719 27.266-1.1953 2.5352-1.8398 5.2422-1.8398 8.1133v4.1719l-67.938 25.602c0.40234 0.046875 0.79297 0.11719 1.1875 0.17188-0.625-0.082031-1.2422-0.1875-1.875-0.26562-3.4844-0.41016-7.0039-0.72266-10.551-0.92969h-0.007813c-3.5391-0.20703-7.0859-0.3125-10.621-0.3125h-0.007813c-33.734 0-69.348 9.4961-77.719 27.258-1.1953 2.5391-1.832 5.2461-1.832 8.1133v4.1719l-93.789 35.332c-0.51562 0.1875-1.0078 0.44531-1.4648 0.75781-0.070313 0.046875-0.11719 0.10938-0.17969 0.16016-0.16797 0.125-0.29688 0.26562-0.45312 0.41016-0.3125 0.27734-0.60547 0.57422-0.85547 0.90234-0.14063 0.17188-0.26563 0.35547-0.38281 0.54297-0.22266 0.35938-0.39453 0.73047-0.54688 1.125-0.078125 0.17969-0.16016 0.36719-0.21484 0.5625-0.16797 0.57031-0.26953 1.1602-0.27734 1.7695 0 0.027344-0.007812 0.046875-0.007812 0.070313v0.007812 0.007812 277.34c0 2.7891 1.7266 5.3047 4.332 6.2969l341.96 130.9c0.054687 0.027343 0.125 0.015625 0.1875 0.042969 0.72266 0.24219 1.4648 0.41016 2.2227 0.41016 0.74219 0 1.4805-0.14453 2.1953-0.39453 0.054687-0.027343 0.125-0.015624 0.17188-0.042968l338.71-127.63c2.6562-0.97266 4.3945-3.4883 4.3945-6.293v-277.34c0-0.63281-0.11328-1.2422-0.27344-1.832zm-198.42-66.035c1.7344-0.23047 3.5117-0.4375 5.332-0.61719 0.082032-0.007813 0.14453-0.015625 0.21484-0.019532 1.832-0.17969 3.6992-0.33203 5.6172-0.45312h0.015624c3.6719-0.23438 7.4688-0.39063 11.426-0.39063 4.1641 0 8.1758 0.14063 12.008 0.40234 6.4297 0.42969 12.348 1.207 17.785 2.2227 0.38281 0.070313 0.74219 0.14063 1.1094 0.21484 4.2969 0.83984 8.2461 1.832 11.836 2.9297 0.36719 0.10938 0.72266 0.23047 1.082 0.33984 1.7344 0.5625 3.4141 1.1367 4.9648 1.7344 0.027344 0.007813 0.042969 0.015626 0.070312 0.027344 1.4922 0.58203 2.875 1.1992 4.1992 1.8203 0.32812 0.15234 0.63672 0.30469 0.94922 0.45703 1.293 0.63281 2.5078 1.2695 3.6094 1.9219 0.027344 0.019531 0.054687 0.042969 0.082031 0.0625 1.0547 0.63281 1.9766 1.2773 2.8477 1.9141 0.23047 0.17187 0.44531 0.33984 0.66797 0.51562 0.82422 0.66797 1.5977 1.3242 2.2227 1.9922 1.7227 1.8477 2.6328 3.6602 2.6328 5.3398 0 8.9258-25.734 21.887-66.07 21.887-2.9844 0-5.8594-0.089843-8.6641-0.23047-0.85547-0.035156-1.6641-0.097656-2.4922-0.14453-2.0195-0.125-4-0.28516-5.9297-0.46484-0.78516-0.078125-1.5898-0.15234-2.3594-0.24219-2.2617-0.25781-4.4648-0.55469-6.5859-0.88672-0.26953-0.046874-0.58203-0.078124-0.85547-0.125-2.4922-0.41016-4.8672-0.875-7.1445-1.3828-0.32813-0.070312-0.65234-0.15234-0.98047-0.23047-1.9492-0.45312-3.8242-0.9375-5.6172-1.4453-0.35547-0.10547-0.70703-0.20703-1.043-0.30469-9.5586-2.832-16.598-6.4219-20.582-9.9961-0.14453-0.14063-0.29688-0.27734-0.42969-0.41797-0.36719-0.33984-0.72266-0.67969-1.0117-1.0117-0.39453-0.44531-0.75781-0.89453-1.0547-1.3398-0.14063-0.19531-0.23047-0.39062-0.33984-0.57422-0.20312-0.35938-0.39453-0.72266-0.52734-1.0742-0.082031-0.16797-0.14062-0.33203-0.1875-0.5-0.14453-0.51562-0.25781-1.0117-0.25781-1.5078 0-0.5625 0.10937-1.1328 0.29687-1.7148 0.17188-0.51953 0.44531-1.0547 0.76953-1.5898 0.10938-0.1875 0.26953-0.375 0.41016-0.5625 0.24219-0.35547 0.5-0.70703 0.8125-1.0625 0.20312-0.23438 0.44531-0.46484 0.67969-0.69922 0.29687-0.3125 0.625-0.625 0.98047-0.9375 0.29688-0.25781 0.625-0.51953 0.94922-0.77734 0.35547-0.27734 0.70703-0.55469 1.082-0.83203 0.41016-0.29297 0.82422-0.57422 1.2773-0.86719 0.35547-0.23438 0.74219-0.47266 1.1367-0.71484 0.51562-0.3125 1.0547-0.63281 1.625-0.94531 0.35547-0.1875 0.72266-0.375 1.082-0.57031 0.66797-0.34766 1.3398-0.69531 2.0898-1.0352 0.25781-0.11719 0.52734-0.23437 0.79688-0.35547 7.2969-3.2852 17.242-6.1172 29.355-7.7461 0.035156-0.003906 0.074218-0.011719 0.11719-0.011719zm88.664 40.676v23.094c0 8.9219-25.734 21.887-66.055 21.887v-29.871c24.941-0.007813 50.832-5.2227 66.055-15.109zm-302.82-87.434c0.17188-0.51953 0.44531-1.0547 0.76953-1.5898 0.11719-0.1875 0.27734-0.375 0.41016-0.5625 0.25-0.35547 0.5-0.70703 0.8125-1.0625 0.20313-0.23047 0.44531-0.46484 0.67188-0.69531 0.30469-0.3125 0.625-0.625 0.98047-0.9375 0.29688-0.26562 0.625-0.51953 0.94922-0.77734 0.35547-0.27734 0.71094-0.55469 1.0938-0.83203 0.40234-0.29297 0.82422-0.57422 1.2695-0.86719 0.36719-0.23438 0.74219-0.47266 1.1367-0.70703 0.51953-0.3125 1.0547-0.63281 1.625-0.94531 0.35547-0.1875 0.72266-0.375 1.082-0.57031 0.67969-0.34766 1.3555-0.69531 2.0898-1.0273 0.25781-0.125 0.52734-0.23438 0.79688-0.35547 7.2969-3.2852 17.242-6.1172 29.355-7.7539 0.042968-0.007813 0.082031-0.015625 0.125-0.015625 1.7344-0.23438 3.5117-0.4375 5.3398-0.61719 0.078124-0.007812 0.14453-0.015624 0.20703-0.019531 1.832-0.17969 3.6992-0.33203 5.6172-0.45703h0.019532c3.6602-0.23438 7.457-0.37891 11.414-0.37891 4.1641 0 8.1758 0.14062 12.008 0.39453 6.4219 0.42969 12.363 1.207 17.785 2.2227 0.38281 0.070313 0.75781 0.14062 1.125 0.21484 4.2969 0.83203 8.2461 1.832 11.836 2.9297 0.35547 0.10938 0.72266 0.23047 1.082 0.33984 1.7344 0.55469 3.4023 1.1328 4.9648 1.7344 0.015625 0.007813 0.042969 0.019531 0.070313 0.027344 1.4922 0.58203 2.875 1.1953 4.1992 1.8203 0.32813 0.15234 0.63672 0.30469 0.94922 0.45703 1.293 0.63281 2.5078 1.2773 3.5977 1.9219 0.027343 0.019531 0.054687 0.042968 0.097656 0.0625 1.0547 0.63281 1.9766 1.2773 2.832 1.9141 0.23047 0.17188 0.45703 0.33984 0.67969 0.51562 0.82422 0.66797 1.5977 1.3242 2.207 1.9922 1.7344 1.8477 2.6445 3.6602 2.6445 5.332 0 8.9258-25.734 21.887-66.07 21.887-2.9844 0-5.8516-0.089844-8.6719-0.23047-0.83984-0.035156-1.6602-0.097656-2.4844-0.14453-2.0117-0.125-3.9922-0.28516-5.9219-0.46484-0.79688-0.082031-1.5898-0.15234-2.375-0.24219-2.2578-0.25781-4.457-0.55469-6.5742-0.88672-0.28516-0.042969-0.58203-0.078125-0.86719-0.125-2.4922-0.41016-4.8594-0.875-7.1445-1.3828-0.32812-0.070312-0.63672-0.15234-0.96484-0.23047-1.957-0.45313-3.8398-0.92969-5.6172-1.4453-0.35547-0.10547-0.70703-0.20312-1.0547-0.30469-9.5586-2.832-16.582-6.4219-20.566-9.9961-0.15234-0.14062-0.29688-0.27734-0.4375-0.41797-0.35547-0.33984-0.71484-0.67969-1.0117-1.0117-0.40234-0.44531-0.76172-0.89453-1.0625-1.3398-0.13281-0.19531-0.23047-0.39062-0.33984-0.57422-0.20312-0.35938-0.39062-0.72266-0.52734-1.0742-0.070313-0.16797-0.14062-0.33203-0.1875-0.5-0.14453-0.51562-0.26562-1.0195-0.26562-1.5078 0.003906-0.55859 0.10547-1.1328 0.30078-1.7148zm131.85 21.984v23.094c0 8.9219-25.734 21.879-66.062 21.879v-29.871c24.938-0.003906 50.832-5.2188 66.062-15.102zm-206.18 10.586c-0.36719-0.0625-0.72266-0.14062-1.082-0.19531 0.36719 0.0625 0.72266 0.13672 1.082 0.19531zm5.5 1.0273c-0.046875-0.015625-0.097656-0.027344-0.14453-0.035156 0.046875 0.007812 0.09375 0.019531 0.14453 0.035156zm-100.53 30.215c0.17188-0.51953 0.44531-1.0547 0.76953-1.5898 0.11719-0.17969 0.27734-0.36719 0.41016-0.55469 0.25-0.35547 0.5-0.70703 0.8125-1.0625 0.20312-0.23047 0.44531-0.46484 0.67188-0.69922 0.30469-0.30469 0.61719-0.61719 0.98047-0.92969 0.29297-0.26562 0.61719-0.51953 0.94922-0.77734 0.34766-0.28516 0.70703-0.55469 1.0898-0.83203 0.40234-0.29297 0.82422-0.57422 1.2695-0.86719 0.35937-0.23438 0.75-0.47266 1.1367-0.70703 0.51953-0.32031 1.0547-0.63281 1.6328-0.94531 0.34766-0.1875 0.72266-0.375 1.082-0.57031 0.67188-0.34766 1.3555-0.69531 2.0898-1.0273 0.25781-0.125 0.52734-0.23438 0.79297-0.35547 7.3008-3.2891 17.25-6.1172 29.355-7.7539 0.042969-0.007813 0.082031-0.015625 0.125-0.015625 1.7344-0.23438 3.5117-0.44531 5.3398-0.61719 0.078125-0.007812 0.14453-0.015625 0.21484-0.019531 1.832-0.17969 3.6992-0.33203 5.6094-0.45312h0.019531c3.6719-0.23438 7.4609-0.39062 11.426-0.39062 4.1641 0 8.1719 0.14062 12.008 0.40234 6.4297 0.42969 12.363 1.207 17.785 2.2227 0.38281 0.070312 0.75 0.14453 1.125 0.21484 4.2969 0.83203 8.2461 1.832 11.828 2.9297 0.35938 0.10938 0.72266 0.23047 1.0898 0.33984 1.7344 0.55469 3.4102 1.1328 4.9648 1.7344 0.019531 0.007812 0.035156 0.019531 0.0625 0.027344 1.5 0.58203 2.8789 1.1992 4.1992 1.8203 0.32031 0.15234 0.63672 0.30469 0.95703 0.45703 1.2852 0.63281 2.5078 1.2773 3.5977 1.9219 0.027344 0.019532 0.054687 0.042969 0.089844 0.0625 1.0469 0.63281 1.9766 1.2695 2.8398 1.9141 0.23047 0.17188 0.45312 0.33984 0.66797 0.51562 0.82422 0.66797 1.5977 1.3242 2.2227 1.9844 1.7266 1.8477 2.6367 3.6641 2.6367 5.3398 0 8.9258-25.738 21.887-66.07 21.887-2.9844 0-5.8516-0.089844-8.6719-0.23047-0.84766-0.035157-1.6602-0.097657-2.4844-0.14453-2.0195-0.125-4-0.28516-5.9219-0.47266-0.79297-0.078125-1.5898-0.15234-2.3672-0.24219-2.2578-0.25781-4.457-0.55469-6.582-0.88672-0.28516-0.042969-0.58203-0.078125-0.86719-0.125-2.4922-0.41016-4.8594-0.86719-7.1445-1.3828-0.33203-0.070312-0.63672-0.15234-0.96484-0.23047-1.957-0.45312-3.832-0.92969-5.6172-1.4453-0.35547-0.10547-0.70703-0.20312-1.0469-0.30469-9.5586-2.832-16.59-6.4219-20.574-9.9961-0.15234-0.14062-0.29688-0.27734-0.4375-0.41797-0.35938-0.33984-0.71484-0.67969-1.0117-1.0195-0.40234-0.44531-0.76172-0.89453-1.0625-1.332-0.14062-0.19531-0.23047-0.39062-0.33984-0.58203-0.20312-0.35938-0.39062-0.72266-0.52734-1.0742-0.070313-0.16797-0.14062-0.33203-0.1875-0.5-0.14453-0.51562-0.26562-1.0117-0.26562-1.5078-0.007813-0.55078 0.097656-1.1289 0.29297-1.7109zm131.85 21.984v23.094c0 8.9219-25.734 21.879-66.062 21.879v-29.871c24.941 0.003906 50.824-5.2109 66.062-15.102zm-145.64-1.6953v24.789c0 22.977 40.988 35.375 79.551 35.375 38.574 0 79.566-12.406 79.566-35.375v-43.363c0-1.4375-0.16016-2.832-0.46484-4.1875-0.625-2.707-1.8398-5.2422-3.5664-7.6094-0.86719-1.1875-1.8594-2.3242-2.9727-3.4297-0.79297-0.78516-1.6523-1.543-2.5703-2.2852-0.33984-0.28516-0.73438-0.54688-1.0977-0.82422-0.58203-0.44531-1.1602-0.88281-1.7852-1.3047-0.5-0.34766-1.0273-0.67188-1.5547-1-0.52734-0.33203-1.0469-0.66797-1.6016-0.99219-0.625-0.36719-1.2852-0.72266-1.9453-1.0742-0.47266-0.25781-0.95703-0.50781-1.4492-0.75781-0.75-0.38281-1.5352-0.75-2.3203-1.1094-0.41797-0.19531-0.84766-0.39062-1.2773-0.57422-0.88672-0.39062-1.7891-0.76953-2.7227-1.1367-0.33984-0.14062-0.6875-0.26953-1.0273-0.40234-1.0352-0.39062-2.0742-0.77734-3.1445-1.1445-0.24219-0.082031-0.48438-0.15234-0.72266-0.24219-0.90234-0.29688-1.832-0.58984-2.7617-0.88281l43.227-16.285v24.781c0 22.977 40.988 35.375 79.551 35.375 38.566 0 79.566-12.406 79.566-35.375v-23.051l43.414 16.617c-14.328 4.6016-25.488 11.445-29.703 20.41-1.207 2.5352-1.8477 5.2422-1.8477 8.1133v43.355c0 22.977 40.984 35.375 79.543 35.375 38.59 0 79.57-12.398 79.57-35.375v-23.055l70.797 27.102-228.53 86.129-91.172 34.355-147.06-56.297-175.92-67.348zm582.5 303.2-325.22 122.54v-262.94l325.22-122.53z"/>
  <use x="2.917969" y="664.125" xlink:href="#t"/>
  <use x="28.390625" y="664.125" xlink:href="#c"/>
  <use x="45.507812" y="664.125" xlink:href="#b"/>
  <use x="69.046875" y="664.125" xlink:href="#e"/>
  <use x="92.46875" y="664.125" xlink:href="#a"/>
  <use x="109.0625" y="664.125" xlink:href="#b"/>
  <use x="132.601562" y="664.125" xlink:href="#k"/>
  <use x="169.527344" y="664.125" xlink:href="#j"/>
  <use x="194.375" y="664.125" xlink:href="#i"/>
  <use x="229.082031" y="664.125" xlink:href="#g"/>
  <use x="240.976562" y="664.125" xlink:href="#d"/>
  <use x="264.824219" y="664.125" xlink:href="#f"/>
  <use x="301.617188" y="664.125" xlink:href="#a"/>
  <use x="318.207031" y="664.125" xlink:href="#c"/>
  <use x="335.324219" y="664.125" xlink:href="#s"/>
  <use x="347.21875" y="664.125" xlink:href="#h"/>
  <use x="359.117188" y="664.125" xlink:href="#h"/>
  <use x="371.015625" y="664.125" xlink:href="#e"/>
  <use x="394.4375" y="664.125" xlink:href="#f"/>
  <use x="419.144531" y="664.125" xlink:href="#e"/>
  <use x="2.917969" y="698.832031" xlink:href="#r"/>
  <use x="18.019531" y="698.832031" xlink:href="#c"/>
  <use x="35.136719" y="698.832031" xlink:href="#d"/>
  <use x="58.980469" y="698.832031" xlink:href="#q"/>
  <use x="107.230469" y="698.832031" xlink:href="#a"/>
  <use x="123.820312" y="698.832031" xlink:href="#p"/>
  <use x="148.53125" y="698.832031" xlink:href="#b"/>
  <use x="184.152344" y="698.832031" xlink:href="#o"/>
  <use x="213.203125" y="698.832031" xlink:href="#d"/>
  <use x="237.046875" y="698.832031" xlink:href="#n"/>
  <use x="261.753906" y="698.832031" xlink:href="#f"/>
  <use x="298.546875" y="698.832031" xlink:href="#m"/>
  <use x="323.984375" y="698.832031" xlink:href="#c"/>
  <use x="341.101562" y="698.832031" xlink:href="#d"/>
  <use x="364.949219" y="698.832031" xlink:href="#g"/>
  <use x="376.84375" y="698.832031" xlink:href="#b"/>
  <use x="400.382812" y="698.832031" xlink:href="#l"/>
  <use x="420.957031" y="698.832031" xlink:href="#a"/>
 </g>
</svg>
